<?xml version="1.0" standalone="no"?>
<!DOCTYPE svg PUBLIC "-//W3C//DTD SVG 20010904//EN"
 "http://www.w3.org/TR/2001/REC-SVG-20010904/DTD/svg10.dtd">
<svg version="1.0" xmlns="http://www.w3.org/2000/svg"
 width="2083.000000pt" height="2083.000000pt" viewBox="0 0 2083.000000 2083.000000"
 preserveAspectRatio="xMidYMid meet">
<metadata>
Created by potrace 1.14, written by Peter Selinger 2001-2017
</metadata>
<g transform="translate(0.000000,2083.000000) scale(0.100000,-0.100000)"
fill="#000000" stroke="none">
<path d="M5950 19230 c0 -880 3 -1601 8 -1601 4 -1 671 -3 1482 -4 811 -2
1478 -3 1481 -4 3 0 5 -360 5 -799 l0 -798 -734 0 c-404 1 -738 -2 -744 -5 -7
-4 -14 -2403 -8 -3146 l0 -53 743 0 743 0 -1 -802 0 -803 -2231 0 -2230 0 0
2404 0 2405 -2230 0 -2229 0 -3 -1602 -2 -1602 744 0 744 0 0 -787 c0 -434 1
-795 1 -803 1 -13 89 -15 744 -15 l742 0 0 -1601 0 -1602 743 0 742 0 1 32 c1
17 2 377 3 800 l1 770 2210 0 c1216 1 2219 0 2230 -2 l21 -4 0 -1599 0 -1599
-110 0 c-61 0 -396 -1 -743 0 l-633 0 0 -48 c-1 -26 0 -384 0 -797 1 -412 1
-757 1 -765 0 -8 0 -371 -1 -806 l-1 -790 -732 1 c-403 0 -738 -1 -744 -3 -10
-3 -13 -333 -13 -1603 l0 -1599 1488 0 1488 0 -1 1583 c0 870 1 1591 3 1602 3
20 11 20 1490 20 l1487 0 -1 -1602 -2 -1603 1488 0 1488 0 0 1599 c0 1475 -1
1600 -17 1603 -9 2 -343 3 -743 3 l-728 -1 0 1603 0 1603 -732 0 c-403 0 -738
0 -744 0 -8 0 -11 425 -11 1603 l0 1602 2231 0 2231 0 0 -780 c0 -429 1 -790
3 -803 l4 -22 741 2 742 3 0 1600 0 1600 743 0 742 0 0 802 0 803 745 0 745 0
0 1599 c0 1270 -3 1600 -12 1603 -11 3 -4367 2 -4433 -1 -20 -1 -20 -8 -20
-2401 0 -1623 -3 -2400 -10 -2401 -5 -1 -336 -2 -735 -3 -399 -1 -731 -5 -737
-9 -7 -5 -13 -5 -13 0 0 4 -663 8 -1472 7 -810 0 -1478 1 -1484 3 -8 3 -11
234 -11 803 l0 800 743 0 744 0 0 1603 0 1602 -744 -1 -743 0 0 800 0 801
1486 0 1486 0 2 1603 1 1602 -744 0 -744 0 0 -802 0 -803 -743 0 -744 0 1 802
1 803 -1490 -3 -1489 -2 0 -800 0 -800 -743 0 -743 0 0 95 c0 52 -1 413 -1
803 l0 707 -744 0 -745 0 0 -1600z"/>
</g>
</svg>
